Fungal-Grow 1000 Thickness 0.ufo
<glyph name="Z" format="1">
  <advance width="1403"/>
  <unicode hex="005A"/>
  <outline>
    <contour>
      <point x="115" y="1493" type="line"/>
      <point x="1288" y="1493" type="line"/>
      <point x="1288" y="1339" type="line"/>
      <point x="344" y="170" type="line"/>
      <point x="1311" y="170" type="line"/>
      <point x="1311" y="0" type="line"/>
      <point x="92" y="0" type="line"/>
      <point x="92" y="154" type="line"/>
      <point x="1036" y="1323" type="line"/>
      <point x="115" y="1323" type="line"/>
      <point x="115" y="1493" type="line"/>
    </contour>
    <component base="blob1" xScale="0" xyScale="-1.2886" yScale="0" yxScale="1.2886" xOffset="1347" yOffset="1677"/>
    <component base="blob2" xScale="0" xyScale="-1" yScale="0" yxScale="1" xOffset="1637" yOffset="2175"/>
    <component base="blob3" xScale="0" xyScale="-1" yScale="0" yxScale="1" xOffset="2030" yOffset="2441"/>
    <component base="blob4" xScale="0" xyScale="-0.8783" yScale="0" yxScale="0.8783" xOffset="2420" yOffset="2702"/>
    <component base="blob5" xScale="0" xyScale="-1" yScale="0" yxScale="1" xOffset="2859" yOffset="2713"/>
    <component base="blob6" xScale="0" xyScale="-1.1539" yScale="0" yxScale="1.1539" xOffset="3400" yOffset="2841"/>
    <component base="blob7" xScale="0" xyScale="-0.9753" yScale="0" yxScale="0.9753" xOffset="3721" yOffset="3279"/>
    <component base="blob8" xScale="0" xyScale="-0.7047" yScale="0" yxScale="0.7047" xOffset="4011" yOffset="3555"/>
    <component base="blob9" xScale="0" xyScale="-0.4869" yScale="0" yxScale="0.4869" xOffset="4237" yOffset="3694"/>
    <component base="blob1" xScale="0" xyScale="1.2886" yScale="0" yxScale="-1.2886" xOffset="187" yOffset="133"/>
    <component base="blob2" xScale="0" xyScale="1" yScale="0" yxScale="-1" xOffset="-103" yOffset="-365"/>
    <component base="blob3" xScale="0" xyScale="1" yScale="0" yxScale="-1" xOffset="-496" yOffset="-631"/>
    <component base="blob4" xScale="0" xyScale="0.8783" yScale="0" yxScale="-0.8783" xOffset="-886" yOffset="-892"/>
    <component base="blob5" xScale="0" xyScale="1" yScale="0" yxScale="-1" xOffset="-1325" yOffset="-903"/>
    <component base="blob6" xScale="0" xyScale="1.1539" yScale="0" yxScale="-1.1539" xOffset="-1866" yOffset="-1031"/>
    <component base="blob7" xScale="0" xyScale="0.9753" yScale="0" yxScale="-0.9753" xOffset="-2187" yOffset="-1469"/>
    <component base="blob8" xScale="0" xyScale="0.7047" yScale="0" yxScale="-0.7047" xOffset="-2477" yOffset="-1745"/>
    <component base="blob9" xScale="0" xyScale="0.4869" yScale="0" yxScale="-0.4869" xOffset="-2703" yOffset="-1884"/>
    <component base="blob2" xScale="0" xyScale="1" yScale="0" yxScale="-1" xOffset="583" yOffset="515"/>
    <component base="blob3" xScale="0" xyScale="1" yScale="0" yxScale="-1" xOffset="832" yOffset="844"/>
    <component base="blob2" xScale="0" xyScale="-1" yScale="0" yxScale="1" xOffset="870" yOffset="1411"/>
    <component base="blob3" xScale="0" xyScale="-1" yScale="0" yxScale="1" xOffset="470" yOffset="1501"/>
    <component base="blob4" xScale="0" xyScale="-0.8783" yScale="0" yxScale="0.8783" xOffset="59" yOffset="1334"/>
    <component base="blob5" xScale="0" xyScale="-1" yScale="0" yxScale="1" xOffset="-210" yOffset="973"/>
    <component base="blob6" xScale="0" xyScale="-0.6406" yScale="0" yxScale="0.6406" xOffset="-373" yOffset="622"/>
    <component base="blob7" xScale="0" xyScale="-0.4175" yScale="0" yxScale="0.4175" xOffset="-443" yOffset="444"/>
    <component base="blob4" xScale="0" xyScale="0.8783" yScale="0" yxScale="-0.8783" xOffset="1197" yOffset="1095"/>
    <component base="blob5" xScale="0" xyScale="1" yScale="0" yxScale="-1" xOffset="1504" yOffset="1155"/>
    <component base="blob6" xScale="0" xyScale="1.1539" yScale="0" yxScale="-1.1539" xOffset="1848" yOffset="763"/>
    <component base="blob7" xScale="0" xyScale="0.9753" yScale="0" yxScale="-0.9753" xOffset="1989" yOffset="237"/>
    <component base="blob8" xScale="0" xyScale="0.7047" yScale="0" yxScale="-0.7047" xOffset="2297" yOffset="-3"/>
    <component base="blob9" xScale="0" xyScale="0.4869" yScale="0" yxScale="-0.4869" xOffset="2564" yOffset="106"/>
    <contour>
      <point x="702" y="1520" type="move" name="above"/>
    </contour>
    <contour>
      <point x="702" y="0" type="move" name="below"/>
    </contour>
    <contour>
      <point x="702" y="0" type="move" name="cedilla"/>
    </contour>
    <contour>
      <point x="0" y="1520" type="move" name="half"/>
    </contour>
    <contour>
      <point x="702" y="-2.6" type="move" name="ogonek"/>
    </contour>
  </outline>
</glyph>
<glyph name="t" format="1">
  <advance width="803"/>
  <unicode hex="0074"/>
  <outline>
    <contour>
      <point x="375" y="1438" type="line"/>
      <point x="375" y="1120" type="line"/>
      <point x="754" y="1120" type="line"/>
      <point x="754" y="977" type="line"/>
      <point x="375" y="977" type="line"/>
      <point x="375" y="369" type="line" smooth="yes"/>
      <point x="375" y="186.333"/>
      <point x="411.667" y="154"/>
      <point x="565" y="154" type="curve" smooth="yes"/>
      <point x="754" y="154" type="line"/>
      <point x="754" y="0" type="line"/>
      <point x="565" y="0" type="line" smooth="yes"/>
      <point x="281" y="0"/>
      <point x="190" y="89"/>
      <point x="190" y="369" type="curve" smooth="yes"/>
      <point x="190" y="977" type="line"/>
      <point x="55" y="977" type="line"/>
      <point x="55" y="1120" type="line"/>
      <point x="190" y="1120" type="line"/>
      <point x="190" y="1438" type="line"/>
      <point x="375" y="1438" type="line"/>
    </contour>
    <component base="blob1" xScale="0" xyScale="1.2886" yScale="0" yxScale="1.2886" xOffset="929" yOffset="1013"/>
    <component base="blob2" xScale="0" xyScale="1" yScale="0" yxScale="1" xOffset="1281" yOffset="1312"/>
    <component base="blob3" xScale="0" xyScale="1" yScale="0" yxScale="1" xOffset="1698" yOffset="1230"/>
    <component base="blob4" xScale="0" xyScale="0.8783" yScale="0" yxScale="0.8783" xOffset="2012" yOffset="1499"/>
    <component base="blob5" xScale="0" xyScale="1" yScale="0" yxScale="1" xOffset="2451" yOffset="1299"/>
    <component base="blob6" xScale="0" xyScale="1.1539" yScale="0" yxScale="1.1539" xOffset="2795" yOffset="902"/>
    <component base="blob7" xScale="0" xyScale="0.9753" yScale="0" yxScale="0.9753" xOffset="3189" yOffset="692"/>
    <component base="blob8" xScale="0" xyScale="0.7047" yScale="0" yxScale="0.7047" xOffset="3496" yOffset="544"/>
    <component base="blob9" xScale="0" xyScale="0.4869" yScale="0" yxScale="0.4869" xOffset="3774" yOffset="582"/>
    <component base="blob3" xScale="0" xyScale="1" yScale="0" yxScale="1" xOffset="-94" yOffset="921"/>
    <component base="blob3" xScale="0" xyScale="1" yScale="0" yxScale="1" xOffset="-359" yOffset="618"/>
    <component base="blob4" xScale="0" xyScale="0.8783" yScale="0" yxScale="0.8783" xOffset="-704" yOffset="670"/>
    <component base="blob5" xScale="0" xyScale="1" yScale="0" yxScale="1" xOffset="-998" yOffset="391"/>
    <component base="blob6" xScale="0" xyScale="1.1539" yScale="0" yxScale="1.1539" xOffset="-1474" yOffset="473"/>
    <component base="blob7" xScale="0" xyScale="0.9753" yScale="0" yxScale="0.9753" xOffset="-1879" yOffset="314"/>
    <component base="blob8" xScale="0" xyScale="0.7047" yScale="0" yxScale="0.7047" xOffset="-2213" yOffset="448"/>
    <component base="blob9" xScale="0" xyScale="0.4869" yScale="0" yxScale="0.4869" xOffset="-2360" yOffset="582"/>
    <component base="blob3" xScale="0" xyScale="1" yScale="0" yxScale="1" xOffset="269" yOffset="1080"/>
    <component base="blob2" xScale="0" xyScale="1" yScale="0" yxScale="1" xOffset="576" yOffset="884"/>
    <component base="blob3" xScale="0" xyScale="1" yScale="0" yxScale="1" xOffset="382" yOffset="618"/>
    <component base="blob4" xScale="0" xyScale="0.8783" yScale="0" yxScale="0.8783" xOffset="493" yOffset="323"/>
    <component base="blob5" xScale="0" xyScale="0.7044" yScale="0" yxScale="0.7044" xOffset="666" yOffset="130"/>
    <component base="blob6" xScale="0" xyScale="0.4765" yScale="0" yxScale="0.4765" xOffset="857" yOffset="262"/>
    <contour>
      <point x="282" y="1520" type="move" name="above"/>
    </contour>
    <contour>
      <point x="500" y="0" type="move" name="below"/>
    </contour>
    <contour>
      <point x="0" y="1520" type="move" name="half"/>
    </contour>
  </outline>
</glyph>
<glyph name="y" format="1">
  <advance width="1212"/>
  <unicode hex="0079"/>
  <outline>
    <contour>
      <point x="659" y="-104" type="line"/>
      <point x="555" y="-370.667"/>
      <point x="474.333" y="-426"/>
      <point x="309" y="-426" type="curve" smooth="yes"/>
      <point x="162" y="-426" type="line"/>
      <point x="162" y="-272" type="line"/>
      <point x="270" y="-272" type="line" smooth="yes"/>
      <point x="371.333" y="-272"/>
      <point x="413" y="-244.667"/>
      <point x="481" y="-66" type="curve" smooth="yes"/>
      <point x="514" y="18" type="line"/>
      <point x="61" y="1120" type="line"/>
      <point x="256" y="1120" type="line"/>
      <point x="606" y="244" type="line"/>
      <point x="956" y="1120" type="line"/>
      <point x="1151" y="1120" type="line"/>
      <point x="659" y="-104" type="line"/>
    </contour>
    <component base="blob1" xScale="0" xyScale="1.2886" yScale="0" yxScale="-1.2886" xOffset="746" yOffset="816"/>
    <component base="blob2" xScale="0" xyScale="1" yScale="0" yxScale="-1" xOffset="711" yOffset="1069"/>
    <component base="blob3" xScale="0" xyScale="1" yScale="0" yxScale="-1" xOffset="556" yOffset="1233"/>
    <component base="blob4" xScale="0" xyScale="0.6152" yScale="0" yxScale="-0.6152" xOffset="508" yOffset="1451"/>
    <component base="blob5" xScale="0" xyScale="1" yScale="0" yxScale="-1" xOffset="374" yOffset="1586"/>
    <component base="blob6" xScale="0" xyScale="1.1539" yScale="0" yxScale="-1.1539" xOffset="117" yOffset="1686"/>
    <component base="blob7" xScale="0" xyScale="0.9753" yScale="0" yxScale="-0.9753" xOffset="-130" yOffset="1778"/>
    <component base="blob8" xScale="0" xyScale="0.7047" yScale="0" yxScale="-0.7047" xOffset="-1983" yOffset="168"/>
    <component base="blob9" xScale="0" xyScale="0.4869" yScale="0" yxScale="-0.4869" xOffset="-337" yOffset="2124"/>
    <component base="blob1" xScale="0" xyScale="0.8746" yScale="0" yxScale="-0.8746" xOffset="274" yOffset="-142"/>
    <component base="blob2" xScale="0" xyScale="1" yScale="0" yxScale="-1" xOffset="15" yOffset="145"/>
    <component base="blob3" xScale="0" xyScale="0.8765" yScale="0" yxScale="-0.8765" xOffset="-307" yOffset="33"/>
    <component base="blob4" xScale="0" xyScale="0.8594" yScale="0" yxScale="-0.8594" xOffset="-608" yOffset="-65"/>
    <component base="blob5" xScale="0" xyScale="1" yScale="0" yxScale="-1" xOffset="-923" yOffset="206"/>
    <component base="blob6" xScale="0" xyScale="0.8427" yScale="0" yxScale="-0.8427" xOffset="-1289" yOffset="433"/>
    <component base="blob7" xScale="0" xyScale="0.9753" yScale="0" yxScale="-0.9753" xOffset="-1700" yOffset="439"/>
    <component base="blob9" xScale="0" xyScale="0.4869" yScale="0" yxScale="-0.4869" xOffset="-1993" yOffset="-97"/>
    <component base="blob8" xScale="0" xyScale="0.7047" yScale="0" yxScale="-0.7047" xOffset="-240" yOffset="1955"/>
    <contour>
      <point x="608" y="1147" type="move" name="above"/>
    </contour>
    <contour>
      <point x="608" y="-430" type="move" name="below"/>
    </contour>
    <contour>
      <point x="0" y="1520" type="move" name="half"/>
    </contour>
    <contour>
      <point x="250" y="-426" type="move" name="ogonek"/>
    </contour>
  </outline>
</glyph>
<glyph name="itilde" format="1">
  <advance width="569"/>
  <unicode hex="0129"/>
  <outline>
    <component base="tilde" xOffset="-227"/>
    <component base="dotlessi"/>
    <contour>
      <point x="287" y="0" type="move" name="below"/>
    </contour>
    <contour>
      <point x="287" y="0" type="move" name="cedilla"/>
    </contour>
  </outline>
</glyph>
<glyph name="Ibreve" format="1">
  <advance width="604"/>
  <unicode hex="012C"/>
  <outline>
    <component base="Breve" xOffset="814" yOffset="373"/>
    <component base="I"/>
    <contour>
      <point x="303" y="0" type="move" name="below"/>
    </contour>
    <contour>
      <point x="303" y="0" type="move" name="cedilla"/>
    </contour>
  </outline>
</glyph>
<glyph name="uni029E" format="1">
  <advance width="1366"/>
  <unicode hex="029E"/>
  <outline>
    <contour>
      <point x="1180" y="-436" type="line"/>
      <point x="995" y="-436" type="line"/>
      <point x="995" y="483" type="line"/>
      <point x="446" y="0" type="line"/>
      <point x="211" y="0" type="line"/>
      <point x="805" y="524" type="line"/>
      <point x="186" y="1120" type="line"/>
      <point x="426" y="1120" type="line"/>
      <point x="995" y="573" type="line"/>
      <point x="995" y="1120" type="line"/>
      <point x="1180" y="1120" type="line"/>
    </contour>
    <contour>
      <point x="683" y="1147" type="move" name="above"/>
    </contour>
    <contour>
      <point x="683" y="-430" type="move" name="below"/>
    </contour>
  </outline>
</glyph>
<glyph name="uni0307" format="1">
  <advance width="0"/>
  <unicode hex="0307"/>
  <outline>
    <contour>
      <point x="-606" y="1556" type="line"/>
      <point x="-422" y="1556" type="line"/>
      <point x="-422" y="1323" type="line"/>
      <point x="-606" y="1323" type="line"/>
    </contour>
    <contour>
      <point x="-512" y="1147" type="move"/>
    </contour>
    <contour>
      <point x="-512" y="1147" type="move" name="_above"/>
    </contour>
    <contour>
      <point x="-512" y="1282" type="move" name="_above-mark"/>
    </contour>
    <contour>
      <point x="-512" y="1556" type="move" name="above-mark"/>
    </contour>
  </outline>
</glyph>
<glyph name="dotbelowcomb" format="1">
  <advance width="0"/>
  <unicode hex="0323"/>
  <outline>
    <contour>
      <point x="-606" y="-141" type="line"/>
      <point x="-422" y="-141" type="line"/>
      <point x="-422" y="-375" type="line"/>
      <point x="-606" y="-375" type="line"/>
    </contour>
    <contour>
      <point x="-512" y="-1" type="move" name="_Ligature below"/>
    </contour>
    <contour>
      <point x="-512" y="-1" type="move" name="_below"/>
    </contour>
    <contour>
      <point x="-512" y="0" type="move" name="_below-mark"/>
    </contour>
    <contour>
      <point x="-512" y="-375" type="move" name="below-mark"/>
    </contour>
  </outline>
</glyph>
<glyph name="uni0405" format="1">
  <advance width="1300"/>
  <unicode hex="0405"/>
  <outline>
    <component base="S"/>
    <contour>
      <point x="659" y="1520" type="move" name="above"/>
    </contour>
  </outline>
</glyph>
<glyph name="uni0420" format="1">
  <advance width="1235"/>
  <unicode hex="0420"/>
  <outline>
    <component base="P"/>
    <contour>
      <point x="670" y="1520" type="move" name="above"/>
    </contour>
  </outline>
</glyph>
<glyph name="uni043E" format="1">
  <advance width="1253"/>
  <unicode hex="043E"/>
  <outline>
    <component base="o"/>
    <contour>
      <point x="637" y="1147" type="move" name="above"/>
    </contour>
  </outline>
</glyph>
<glyph name="uni05BB" format="1">
  <advance width="0"/>
  <unicode hex="05BB"/>
  <outline>
    <component base="uni05B4" xOffset="223" yOffset="-160"/>
    <component base="uni05B4" xOffset="-27" yOffset="-10"/>
    <component base="uni05B4" xOffset="-277" yOffset="140"/>
    <contour>
      <point x="655" y="0" type="move" name="_Ligature rtl-below"/>
    </contour>
    <contour>
      <point x="655" y="0" type="move" name="_rtl-below"/>
    </contour>
    <contour>
      <point x="655" y="0" type="move" name="_rtl-below-mark"/>
    </contour>
  </outline>
</glyph>
<glyph name="uni05D5" format="1">
  <advance width="558"/>
  <unicode hex="05D5"/>
  <outline>
    <contour>
      <point x="372" y="1120" type="line"/>
      <point x="372" y="0" type="line"/>
      <point x="186" y="0" type="line"/>
      <point x="186" y="1120" type="line"/>
    </contour>
    <contour>
      <point x="271" y="0" type="move" name="rtl-below"/>
    </contour>
    <contour>
      <point x="56" y="795" type="move" name="rtl-inside"/>
    </contour>
  </outline>
</glyph>
<glyph name="uni05DF" format="1">
  <advance width="558"/>
  <unicode hex="05DF"/>
  <outline>
    <contour>
      <point x="372" y="1120" type="line"/>
      <point x="372" y="-426" type="line"/>
      <point x="186" y="-426" type="line"/>
      <point x="186" y="1120" type="line"/>
    </contour>
    <contour>
      <point x="56" y="0" type="move" name="rtl-below"/>
    </contour>
  </outline>
</glyph>
<glyph name="uni0627" format="1">
  <advance width="569"/>
  <unicode hex="0627"/>
  <outline>
    <contour>
      <point x="193" y="1556" type="line"/>
      <point x="377" y="1556" type="line"/>
      <point x="377" y="0" type="line"/>
      <point x="193" y="0" type="line"/>
    </contour>
    <contour>
      <point x="285" y="1650" type="move" name="rtl-above"/>
    </contour>
    <contour>
      <point x="285" y="-100" type="move" name="rtl-below"/>
    </contour>
  </outline>
</glyph>
<glyph name="uni068C" format="1">
  <advance width="912"/>
  <unicode hex="068C"/>
  <outline>
    <component base="uni062F"/>
    <component base="arabic_2dots" xOffset="250" yOffset="1050"/>
    <contour>
      <point x="450" y="1250" type="move" name="rtl-above"/>
    </contour>
    <contour>
      <point x="450" y="-150" type="move" name="rtl-below"/>
    </contour>
  </outline>
</glyph>
<glyph name="uni0ECB" format="1">
  <advance width="0"/>
  <unicode hex="0ECB"/>
  <outline>
    <contour>
      <point x="-946" y="1464" type="line"/>
      <point x="-946" y="1606" type="line"/>
      <point x="-730" y="1606" type="line"/>
      <point x="-730" y="1822" type="line"/>
      <point x="-588" y="1822" type="line"/>
      <point x="-588" y="1606" type="line"/>
      <point x="-372" y="1606" type="line"/>
      <point x="-372" y="1464" type="line"/>
      <point x="-588" y="1464" type="line"/>
      <point x="-588" y="1248" type="line"/>
      <point x="-730" y="1248" type="line"/>
      <point x="-730" y="1464" type="line"/>
    </contour>
    <contour>
      <point x="0" y="1120" type="move" name="_lao-above"/>
    </contour>
    <contour>
      <point x="-660" y="1120" type="move" name="_lao-above-mark"/>
    </contour>
  </outline>
</glyph>
<glyph name="uni1E0A" format="1">
  <advance width="1577"/>
  <unicode hex="1E0A"/>
  <outline>
    <component base="Dotaccent" xOffset="1260" yOffset="373"/>
    <component base="D"/>
    <contour>
      <point x="748" y="1872" type="move" name="above-legacy"/>
    </contour>
    <contour>
      <point x="748" y="0" type="move" name="below"/>
    </contour>
    <contour>
      <point x="0" y="1520" type="move" name="half"/>
    </contour>
  </outline>
</glyph>
<glyph name="uniA651" format="1">
  <advance width="1856"/>
  <unicode hex="A651"/>
  <outline>
    <component base="uni044A"/>
    <component base="dotlessi" xOffset="1297"/>
    <contour>
      <point x="1036" y="1147" type="move" name="above"/>
    </contour>
  </outline>
</glyph>
<glyph name="uniA66D" format="1">
  <advance width="2086"/>
  <unicode hex="A66D"/>
  <outline>
    <component base="periodcentered" xOffset="1135" yOffset="-124"/>
    <component base="periodcentered" xOffset="302" yOffset="-124"/>
    <component base="uniA74F"/>
    <contour>
      <point x="1043" y="1147" type="move" name="above"/>
    </contour>
  </outline>
</glyph>
<glyph name="uniFB8E" format="1">
  <advance width="1833"/>
  <unicode hex="FB8E"/>
  <outline>
    <component base="uni06A9"/>
    <contour>
      <point x="500" y="1400" type="move" name="rtl-above"/>
    </contour>
    <contour>
      <point x="800" y="-150" type="move" name="rtl-below"/>
    </contour>
  </outline>
</glyph>
<glyph name="uniFB9C" format="1">
  <advance width="975"/>
  <unicode hex="FB9C"/>
  <outline>
    <component base="uniFB94"/>
    <component base="arabic_2dots" xOffset="75" yOffset="1700"/>
    <contour>
      <point x="275" y="1900" type="move" name="rtl-above"/>
    </contour>
    <contour>
      <point x="300" y="-150" type="move" name="rtl-below"/>
    </contour>
  </outline>
</glyph>
<glyph name="uniFBD7" format="1">
  <advance width="989"/>
  <unicode hex="FBD7"/>
  <outline>
    <component base="uni0648"/>
    <component base="uni064F" xOffset="-92" yOffset="-552"/>
    <contour>
      <point x="500" y="1350" type="move" name="rtl-above"/>
    </contour>
    <contour>
      <point x="500" y="-500" type="move" name="rtl-below"/>
    </contour>
  </outline>
</glyph>
<glyph name="uniFE84" format="1">
  <advance width="624"/>
  <unicode hex="FE84"/>
  <outline>
    <component base="uniFE8E"/>
    <component base="uni0654" xOffset="-227" yOffset="450"/>
    <contour>
      <point x="285" y="2200" type="move" name="rtl-above"/>
    </contour>
    <contour>
      <point x="285" y="-100" type="move" name="rtl-below"/>
    </contour>
  </outline>
</glyph>
<glyph name="uniFE90" format="1">
  <advance width="2011"/>
  <unicode hex="FE90"/>
  <outline>
    <component base="uni066E.fina"/>
    <component base="arabic_dot" xOffset="825" yOffset="-350"/>
    <contour>
      <point x="900" y="1000" type="move" name="rtl-above"/>
    </contour>
    <contour>
      <point x="900" y="-400" type="move" name="rtl-below"/>
    </contour>
  </outline>
</glyph>
<glyph name="uniFEFB" format="1">
  <advance width="1168"/>
  <unicode hex="FEFB"/>
  <outline>
    <contour>
      <point x="959" y="834" type="line" smooth="yes"/>
      <point x="959" y="534"/>
      <point x="820" y="316" type="qcurve" smooth="yes"/>
      <point x="764.876" y="230.601"/>
      <point x="688" y="160" type="qcurve" smooth="yes"/>
      <point x="483" y="-20"/>
      <point x="325" y="-20" type="qcurve" smooth="yes"/>
      <point x="219" y="-20"/>
      <point x="144" y="12" type="qcurve"/>
      <point x="144" y="196" type="line"/>
      <point x="240" y="164"/>
      <point x="325" y="164" type="qcurve" smooth="yes"/>
      <point x="438.121" y="164"/>
      <point x="574" y="316" type="qcurve"/>
      <point x="84" y="1410" type="line"/>
      <point x="263" y="1410" type="line"/>
      <point x="689" y="451" type="line"/>
      <point x="717.58" y="493.556"/>
      <point x="737.631" y="549" type="qcurve"/>
      <point x="775" y="685.791"/>
      <point x="775" y="870" type="qcurve" smooth="yes"/>
      <point x="775" y="1556" type="line"/>
      <point x="959" y="1556" type="line"/>
    </contour>
    <contour>
      <point x="150" y="1500" type="move" name="Ligature rtl-above"/>
    </contour>
    <contour>
      <point x="200" y="-150" type="move" name="Ligature rtl-below"/>
    </contour>
  </outline>
</glyph>
<glyph name="u1D54F" format="1">
  <advance width="1650"/>
  <unicode hex="1D54F"/>
  <outline>
    <contour>
      <point x="296" y="1393" type="line"/>
      <point x="1156" y="100" type="line"/>
      <point x="1354" y="100" type="line"/>
      <point x="494" y="1393" type="line"/>
    </contour>
    <contour>
      <point x="108" y="1493" type="line"/>
      <point x="548" y="1493" type="line"/>
      <point x="922" y="931" type="line"/>
      <point x="1310" y="1493" type="line"/>
      <point x="1408" y="1493" type="line"/>
      <point x="972" y="857" type="line"/>
      <point x="1542" y="0" type="line"/>
      <point x="1102" y="0" type="line"/>
      <point x="728" y="562" type="line"/>
      <point x="340" y="0" type="line"/>
      <point x="240" y="0" type="line"/>
      <point x="678" y="635" type="line"/>
    </contour>
    <contour>
      <point x="825" y="1527" type="move" name="above"/>
    </contour>
    <contour>
      <point x="825" y="0" type="move" name="below"/>
    </contour>
  </outline>
</glyph>
<glyph name="uni06A7.fina" format="1">
  <advance width="1708"/>
  <outline>
    <component base="uni066F.fina"/>
    <component base="arabic_dot" xOffset="1025" yOffset="875"/>
    <contour>
      <point x="500" y="850" type="move" name="rtl-above"/>
    </contour>
    <contour>
      <point x="700" y="-615" type="move" name="rtl-below"/>
    </contour>
  </outline>
</glyph>
<glyph name="uni06B7.medi" format="1">
  <advance width="678"/>
  <outline>
    <component base="uniFEE0"/>
    <component base="arabic_3dots" xOffset="127" yOffset="1700"/>
    <contour>
      <point x="339" y="2150" type="move" name="rtl-above"/>
    </contour>
    <contour>
      <point x="339" y="-100" type="move" name="rtl-below"/>
    </contour>
  </outline>
</glyph>
